<?xml version="1.0" encoding="UTF-8"?>
<svg width="1000px" height="1422px" viewBox="0 0 1000 1422" version="1.1" xmlns="http://www.w3.org/2000/svg" xmlns:xlink="http://www.w3.org/1999/xlink">
    <title>Artboard Copy 17</title>
    <g id="Artboard-Copy-17" stroke="none" stroke-width="1" fill="none" fill-rule="evenodd" opacity="0.900000036">
        <g id="Groove-Logic" transform="translate(16.681818, 896.712121)" fill="#FFFFFF" fill-rule="nonzero">
            <path d="M154.636364,3.81818182 L154.636364,161.318182 C154.636364,182.742424 146.787879,198.015152 131.090909,207.136364 C118.151515,214.560606 98.1060606,218.272727 70.9545455,218.272727 C48.0454545,218.272727 30.7575758,212.439394 19.0909091,200.772727 C9.96969697,191.651515 5.40909091,180.833333 5.40909091,168.318182 L46.1363636,168.318182 C49.530303,181.681818 60.5606061,188.363636 79.2272727,188.363636 C103.621212,188.363636 115.818182,177.545455 115.818182,155.909091 L115.818182,138.727273 C104.787879,150.606061 89.5151515,156.545455 70,156.545455 C49.6363636,156.545455 32.8787879,149.439394 19.7272727,135.227273 C6.57575758,121.015152 0,102.030303 0,78.2727273 C0,54.5151515 6.57575758,35.530303 19.7272727,21.3181818 C32.8787879,7.10606061 49.6363636,0 70,0 C89.3030303,0 104.363636,6.46969697 115.181818,19.4090909 L115.818182,19.4090909 L115.818182,3.81818182 L154.636364,3.81818182 Z M117.090909,78.2727273 C117.090909,67.6666667 114.439394,58.4393939 109.136364,50.5909091 C102.136364,40.6212121 92.0606061,35.6363636 78.9090909,35.6363636 C65.7575758,35.6363636 55.7878788,40.6212121 49,50.5909091 C43.4848485,58.4393939 40.7272727,67.6666667 40.7272727,78.2727273 C40.7272727,88.8787879 43.4848485,98.1060606 49,105.954545 C55.7878788,115.924242 65.7575758,120.909091 78.9090909,120.909091 C92.0606061,120.909091 102.136364,115.924242 109.136364,105.954545 C114.439394,98.1060606 117.090909,88.8787879 117.090909,78.2727273 Z" id="Shape"></path>
            <path d="M192.818182,164.818182 L192.818182,3.81818182 L231.636364,3.81818182 L231.636364,26.0909091 L232.272727,26.0909091 C240.969697,8.6969697 257.515152,0 281.909091,0 L281.909091,39.4545455 C267.272727,39.4545455 255.606061,42.9545455 246.909091,49.9545455 C236.727273,58.2272727 231.636364,70.530303 231.636364,86.8636364 L231.636364,164.818182 L192.818182,164.818182 Z" id="Path"></path>
            <path d="M377.045455,0 C402.5,0 422.757576,8.06060606 437.818182,24.1818182 C452.242424,39.6666667 459.454545,59.7121212 459.454545,84.3181818 C459.454545,108.924242 452.242424,128.969697 437.818182,144.454545 C422.757576,160.575758 402.5,168.636364 377.045455,168.636364 C351.590909,168.636364 331.333333,160.575758 316.272727,144.454545 C301.848485,128.969697 294.636364,108.924242 294.636364,84.3181818 C294.636364,59.7121212 302.007576,39.5075758 316.75,23.7045455 C331.492424,7.90151515 351.590909,0 377.045455,0 Z M377.045455,35.6363636 C363.893939,35.6363636 353.5,40.6212121 345.863636,50.5909091 C338.863636,59.7121212 335.363636,70.9545455 335.363636,84.3181818 C335.363636,97.6818182 338.863636,108.924242 345.863636,118.045455 C353.5,128.015152 363.893939,133 377.045455,133 C390.19697,133 400.590909,128.015152 408.227273,118.045455 C415.227273,108.924242 418.727273,97.6818182 418.727273,84.3181818 C418.727273,70.9545455 415.227273,59.7121212 408.227273,50.5909091 C400.590909,40.6212121 390.19697,35.6363636 377.045455,35.6363636 Z" id="Shape"></path>
            <path d="M559.681818,0 C585.136364,0 605.393939,8.06060606 620.454545,24.1818182 C634.878788,39.6666667 642.090909,59.7121212 642.090909,84.3181818 C642.090909,108.924242 634.878788,128.969697 620.454545,144.454545 C605.393939,160.575758 585.136364,168.636364 559.681818,168.636364 C534.227273,168.636364 513.969697,160.575758 498.909091,144.454545 C484.484848,128.969697 477.272727,108.924242 477.272727,84.3181818 C477.272727,59.7121212 484.643939,39.5075758 499.386364,23.7045455 C514.128788,7.90151515 534.227273,0 559.681818,0 Z M559.681818,35.6363636 C546.530303,35.6363636 536.136364,40.6212121 528.5,50.5909091 C521.5,59.7121212 518,70.9545455 518,84.3181818 C518,97.6818182 521.5,108.924242 528.5,118.045455 C536.136364,128.015152 546.530303,133 559.681818,133 C572.833333,133 583.227273,128.015152 590.863636,118.045455 C597.863636,108.924242 601.363636,97.6818182 601.363636,84.3181818 C601.363636,70.9545455 597.863636,59.7121212 590.863636,50.5909091 C583.227273,40.6212121 572.833333,35.6363636 559.681818,35.6363636 Z" id="Shape"></path>
            <polygon id="Path" points="704.454545 164.818182 651.318182 3.81818182 692.363636 3.81818182 724.5 115.181818 725.136364 115.181818 757.272727 3.81818182 798.318182 3.81818182 745.181818 164.818182"></polygon>
            <path d="M967.272727,93.5454545 L848.272727,93.5454545 C848.484848,105 852.939394,114.545455 861.636364,122.181818 C869.484848,129.393939 878.924242,133 889.954545,133 C910.106061,133 925.590909,125.363636 936.409091,110.090909 L969.181818,129.181818 C952,155.484848 925.590909,168.636364 889.954545,168.636364 C864.5,168.636364 844.242424,160.575758 829.181818,144.454545 C814.757576,128.969697 807.545455,108.924242 807.545455,84.3181818 C807.545455,59.7121212 814.916667,39.5075758 829.659091,23.7045455 C844.401515,7.90151515 864.5,0 889.954545,0 C941.5,0 967.272727,31.1818182 967.272727,93.5454545 Z M848.272727,63.6363636 L926.545455,63.6363636 C926.545455,57.4848485 923.681818,51.1212121 917.954545,44.5454545 C910.742424,36.0606061 901.409091,31.8181818 889.954545,31.8181818 C879.136364,31.8181818 870.015152,34.8409091 862.590909,40.8863636 C855.166667,46.9318182 850.393939,54.5151515 848.272727,63.6363636 Z" id="Shape"></path>
            <polygon id="Path" points="160.204545 460.272727 160.204545 233.727273 199.022727 233.727273 199.022727 460.272727"></polygon>
            <path d="M309.431818,295.454545 C334.886364,295.454545 355.143939,303.515152 370.204545,319.636364 C384.628788,335.121212 391.840909,355.166667 391.840909,379.772727 C391.840909,404.378788 384.628788,424.424242 370.204545,439.909091 C355.143939,456.030303 334.886364,464.090909 309.431818,464.090909 C283.977273,464.090909 263.719697,456.030303 248.659091,439.909091 C234.234848,424.424242 227.022727,404.378788 227.022727,379.772727 C227.022727,355.166667 234.393939,334.962121 249.136364,319.159091 C263.878788,303.356061 283.977273,295.454545 309.431818,295.454545 Z M309.431818,331.090909 C296.280303,331.090909 285.886364,336.075758 278.25,346.045455 C271.25,355.166667 267.75,366.409091 267.75,379.772727 C267.75,393.136364 271.25,404.378788 278.25,413.5 C285.886364,423.469697 296.280303,428.454545 309.431818,428.454545 C322.583333,428.454545 332.977273,423.469697 340.613636,413.5 C347.613636,404.378788 351.113636,393.136364 351.113636,379.772727 C351.113636,366.409091 347.613636,355.166667 340.613636,346.045455 C332.977273,336.075758 322.583333,331.090909 309.431818,331.090909 Z" id="Shape"></path>
            <path d="M564.295455,299.272727 L564.295455,456.772727 C564.295455,478.19697 556.44697,493.469697 540.75,502.590909 C527.810606,510.015152 507.765152,513.727273 480.613636,513.727273 C457.704545,513.727273 440.416667,507.893939 428.75,496.227273 C419.628788,487.106061 415.068182,476.287879 415.068182,463.772727 L455.795455,463.772727 C459.189394,477.136364 470.219697,483.818182 488.886364,483.818182 C513.280303,483.818182 525.477273,473 525.477273,451.363636 L525.477273,434.181818 C514.44697,446.060606 499.174242,452 479.659091,452 C459.295455,452 442.537879,444.893939 429.386364,430.681818 C416.234848,416.469697 409.659091,397.484848 409.659091,373.727273 C409.659091,349.969697 416.234848,330.984848 429.386364,316.772727 C442.537879,302.560606 459.295455,295.454545 479.659091,295.454545 C498.962121,295.454545 514.022727,301.924242 524.840909,314.863636 L525.477273,314.863636 L525.477273,299.272727 L564.295455,299.272727 Z M526.75,373.727273 C526.75,363.121212 524.098485,353.893939 518.795455,346.045455 C511.795455,336.075758 501.719697,331.090909 488.568182,331.090909 C475.416667,331.090909 465.44697,336.075758 458.659091,346.045455 C453.143939,353.893939 450.386364,363.121212 450.386364,373.727273 C450.386364,384.333333 453.143939,393.560606 458.659091,401.409091 C465.44697,411.378788 475.416667,416.363636 488.568182,416.363636 C501.719697,416.363636 511.795455,411.378788 518.795455,401.409091 C524.098485,393.560606 526.75,384.333333 526.75,373.727273 Z" id="Shape"></path>
            <path d="M602.477273,460.272727 L602.477273,299.272727 L641.295455,299.272727 L641.295455,460.272727 L602.477273,460.272727 Z M602.477273,273.181818 L602.477273,233.727273 L641.295455,233.727273 L641.295455,273.181818 L602.477273,273.181818 Z" id="Shape"></path>
            <path d="M819.795455,341.272727 L785.75,356.863636 C783.204545,349.015152 778.80303,342.757576 772.545455,338.090909 C766.287879,333.424242 759.340909,331.090909 751.704545,331.090909 C738.55303,331.090909 728.159091,336.075758 720.522727,346.045455 C713.522727,355.166667 710.022727,366.409091 710.022727,379.772727 C710.022727,393.348485 713.204545,404.590909 719.568182,413.5 C726.780303,423.469697 736.75,428.454545 749.477273,428.454545 C767.083333,428.454545 780.128788,418.060606 788.613636,397.272727 L821.704545,414.772727 C806.643939,447.651515 782.356061,464.090909 748.840909,464.090909 C724.659091,464.090909 705.25,456.030303 690.613636,439.909091 C676.401515,424.424242 669.295455,404.378788 669.295455,379.772727 C669.295455,355.166667 676.666667,334.962121 691.409091,319.159091 C706.151515,303.356061 726.25,295.454545 751.704545,295.454545 C784.583333,295.454545 807.280303,310.727273 819.795455,341.272727 Z" id="Path"></path>
        </g>
        <g id="np_frequency_4796467_000000" transform="translate(160.363636, 21.469697)" fill="#FFFFFF" fill-rule="nonzero">
            <path d="M339.636364,0 C429.718603,0 516.097665,35.7796992 579.80852,99.4616525 C643.493723,163.177239 679.272727,249.554092 679.272727,339.636364 C679.272727,429.718603 643.493028,516.097665 579.811075,579.80852 C516.095488,643.493723 429.718636,679.272727 339.636364,679.272727 C249.554125,679.272727 163.175062,643.493028 99.4642075,579.811075 C35.7790039,516.095488 0,429.718636 0,339.636364 C0,249.554125 35.7796992,163.175062 99.4616525,99.4642075 C163.177239,35.7790039 249.554092,0 339.636364,0 Z M339.636364,47.969697 C262.277778,47.969697 188.086725,78.6835764 133.399183,133.40223 C78.6863516,188.093283 47.969697,262.27802 47.969697,339.636364 C47.969697,416.99495 78.6835764,491.186002 133.40223,545.873544 C188.093283,600.586376 262.283465,631.30303 339.636364,631.30303 C416.99495,631.30303 491.186002,600.589151 545.873544,545.870498 C600.586376,491.179444 631.30303,416.994707 631.30303,339.636364 C631.30303,262.277778 600.589151,188.086725 545.870498,133.399183 C491.179444,78.6863516 416.994707,47.969697 339.636364,47.969697 Z" id="Shape"></path>
            <path d="M297.682048,192.399687 C301.887905,190.143455 306.767935,189.138286 311.735959,189.70026 C316.69449,190.262434 321.220159,192.331446 324.812917,195.468254 C328.406905,198.606136 331.067586,202.812657 332.27739,207.584114 L332.27739,207.584114 L378.508205,397.006094 L413.02227,328.827177 C415.041427,324.799833 418.109055,321.518469 421.79832,319.236439 C425.505604,316.943263 429.839953,315.658814 434.333333,315.636364 L434.333333,315.636364 L560.605606,315.636364 C567.225345,315.636364 573.215582,318.3223 577.551692,322.662471 C581.892514,327.007358 584.576061,333.009692 584.576061,339.636364 C584.576061,346.263036 581.892514,352.265369 577.551692,356.610257 C573.215582,360.950427 567.225345,363.636364 560.605606,363.636364 L560.605606,363.636364 L449.223367,363.636364 L392.530284,476.377495 C390.496874,480.410894 387.419483,483.697704 383.724559,485.983235 C380.018788,488.275475 375.692125,489.560891 371.211667,489.583333 L371.211667,489.583333 L367.218948,489.583333 C362.392407,488.970621 357.99355,486.930161 354.484468,483.868775 C350.876103,480.720774 348.208766,476.493874 346.996095,471.688614 L346.996095,471.688614 L300.76528,282.266634 L266.251215,350.44555 C264.232058,354.472894 261.16443,357.754259 257.475165,360.036288 C253.767881,362.329464 249.433532,363.613913 244.940152,363.636364 L244.940152,363.636364 L118.667424,363.636364 C112.047685,363.636364 106.057448,360.950427 101.721339,356.610257 C97.3805165,352.265369 94.6969697,346.263036 94.6969697,339.636364 C94.6969697,333.009692 97.3805165,327.007358 101.721339,322.662471 C106.057448,318.3223 112.047685,315.636364 118.667424,315.636364 L118.667424,315.636364 L230.019798,315.636364 L287.669892,202.608516 C289.942129,198.16546 293.474768,194.656683 297.682048,192.399687 Z" id="Path"></path>
        </g>
    </g>
</svg>